<svg id="Capa_1" data-name="Capa 1" xmlns="http://www.w3.org/2000/svg" xmlns:xlink="http://www.w3.org/1999/xlink" viewBox="0 0 1000 1000"><defs><style>.cls-1{fill:#141416;}.cls-2{stroke:#fff;stroke-width:0.75px;fill:url(#Degradado_sin_nombre_2);}.cls-3{fill:#5fb760;}.cls-4{fill:#d75452;}</style><linearGradient id="Degradado_sin_nombre_2" x1="-58.68" y1="377.51" x2="-58.68" y2="398.47" gradientTransform="translate(4067.99 -15751.66) scale(60.83 42.35)" gradientUnits="userSpaceOnUse"><stop offset="0" stop-color="#454545"/><stop offset="1" stop-color="#111112"/></linearGradient></defs><title>Financene</title><g id="Symbols"><g id="Graphics-_-App-Icons-_-Stocks-" data-name="Graphics-/-App-Icons-/-Stocks-"><g id="Stocks-Icon"><g id="Background"><path id="path-1" class="cls-1" d="M-34-78.05a271.89,271.89,0,0,1,79.67-45c69.22-21.3,132.67-21.3,261-21.3H693.18v-1.42c128.35,0,191.8,0,261,21.3,75,27,134.11,85.2,161.51,159,21.63,68.16,21.63,130.64,21.63,257V672.19c0,126.38,0,188.87-21.63,257-27.4,73.84-86.53,132.06-161.51,159-69.22,21.3-132.67,21.3-261,21.3H306.7c-128.35,0-191.8,0-261-21.3-75-27-134.11-85.2-161.51-159-21.63-68.16-21.63-130.64-21.63-257V293c0-126.38,0-188.87,21.63-257A266.92,266.92,0,0,1-34-78.05"/></g><path id="Chart" class="cls-2" d="M-149,568.52s37.49,0,76.43,12.78c33.17,9.94,67.78,34.08,88,32.66,43.26-2.84,88-17,88-17l80.76-103.66,76.43,63.9,80.76-186L419.18,574.2l88,52.54,79.32-139.16L662.9,467.7l82.2-232.89L824.41,425.1l80.76-52.54,79.32,153.36,76.43-171.83L1146,267.47v854.87H-146.12Z"/><g id="Line"><path id="path-4" d="M743.66,190.79V-177H733.56V189.37h5.77C742.21,189.37,742.21,190.79,743.66,190.79Zm0,115V1176.3H733.56V305.81h10.09Zm-4.33-11.36c-26,0-47.59-21.3-47.59-46.86s21.63-46.86,47.59-46.86,47.59,21.3,47.59,46.86S765.29,294.45,739.33,294.45Z"/><path id="path-4-2" data-name="path-4" class="cls-3" d="M743.66,190.79V-177H733.56V189.37h5.77C742.21,189.37,742.21,190.79,743.66,190.79Zm0,115V1176.3H733.56V305.81h10.09Zm-4.33-11.36c-26,0-47.59-21.3-47.59-46.86s21.63-46.86,47.59-46.86,47.59,21.3,47.59,46.86S765.29,294.45,739.33,294.45Z"/></g><path class="cls-4" d="M254.79-177V197.42q4.94-17.25,10.09-34.43V-177Z"/><polygon class="cls-4" points="9.63 0.17 9.63 1174.88 19.73 1174.88 19.73 -177 9.63 -177 9.63 0.17"/><path class="cls-4" d="M254.79,1174.88h10.09V163q-5.14,17.19-10.09,34.43Z"/><rect class="cls-4" x="978.72" y="-177" width="10.09" height="1351.88"/><rect class="cls-4" x="499.94" y="-177" width="10.09" height="1351.88"/></g></g></g></svg>